<!-- <svg xmlns="http://www.w3.org/2000/svg" viewBox="68.96 55.62 1742.12 450.43"><linearGradient id="a" x1="0" y1="0" x2="0" y2="1"><stop offset="0" stop-color="#50adff"/><stop offset="1" stop-color="#7877fc"/></linearGradient><linearGradient id="b" x1="0" y1="-1" x2="0" y2="2"><stop offset="0" stop-color="#50adff"/><stop offset="1" stop-color="#7877fc"/></linearGradient><path fill="url(#a)" d="M473.09 122.97c0 22.69-10.19 42.85-25.72 55.08L296.61 312.69c-2.8 2.4-6.44-1.47-4.42-4.7l55.3-110.72c1.55-3.1-.46-6.91-3.64-6.91H129.36c-33.22 0-60.4-30.32-60.4-67.37 0-37.06 27.18-67.37 60.4-67.37h283.33c33.22-.02 60.4 30.3 60.4 67.35zM129.36 506.05h283.33c33.22 0 60.4-30.32 60.4-67.37 0-37.06-27.18-67.37-60.4-67.37H198.2c-3.18 0-5.19-3.81-3.64-6.91l55.3-110.72c2.02-3.23-1.62-7.1-4.42-4.7L94.68 383.6c-15.53 12.22-25.72 32.39-25.72 55.08 0 37.05 27.18 67.37 60.4 67.37z"/><path d="m651.86 381.9 124.78-179.6v-1.56H663.52v-48.98h190.09v34.21L731.55 363.24v1.56h124.01v48.98h-203.7V381.9zm338.98-230.14V302.6c0 45.09 17.1 68.03 47.43 68.03 31.1 0 48.2-21.77 48.2-68.03V151.76h59.09V298.7c0 80.86-40.82 119.34-109.24 119.34-66.09 0-104.96-36.54-104.96-120.12V151.76h59.48zm244.91 0h59.48v212.25h104.18v49.76h-163.66V151.76zm297 0v262.01h-59.48V151.76h59.48zm90.18 3.5c18.27-3.11 43.93-5.44 80.08-5.44 36.54 0 62.59 7 80.08 20.99 16.72 13.22 27.99 34.99 27.99 60.64 0 25.66-8.55 47.43-24.1 62.2-20.21 19.05-50.15 27.6-85.13 27.6-7.77 0-14.77-.39-20.21-1.17v93.69h-58.7V155.26zm58.7 118.96c5.05 1.17 11.27 1.55 19.83 1.55 31.49 0 50.92-15.94 50.92-42.76 0-24.1-16.72-38.49-46.26-38.49-12.05 0-20.21 1.17-24.49 2.33v77.37z" fill="url(#b)"/></svg> -->
<?xml version="1.0" standalone="no"?> <!DOCTYPE svg PUBLIC "-//W3C//DTD SVG 20010904//EN" "http://www.w3.org/TR/2001/REC-SVG-20010904/DTD/svg10.dtd">
<svg version="1.0" xmlns="http://www.w3.org/2000/svg"
width="512.000000pt" height="512.000000pt" viewBox="0 0 512.000000 512.000000"
preserveAspectRatio="xMidYMid meet">

<g transform="translate(0.000000,512.000000) scale(0.100000,-0.100000)"
fill="#3BB271" stroke="none">
<path d="M875 3736 c-415 -68 -745 -374 -848 -786 -17 -69 -21 -114 -21 -240
1 -135 4 -168 27 -252 58 -217 174 -402 340 -540 64 -53 91 -59 131 -27 49 38
37 69 -60 162 -137 131 -219 261 -266 424 -31 106 -33 351 -4 458 22 83 82
215 125 278 106 155 273 281 449 341 191 65 340 61 692 -19 135 -30 289 -65
342 -77 54 -12 97 -22 95 -24 -1 -1 -144 -23 -317 -49 -173 -26 -338 -56 -366
-66 -71 -27 -135 -71 -189 -131 -44 -49 -105 -160 -105 -192 0 -14 -25 -16
-219 -16 -199 0 -221 -2 -242 -19 -32 -26 -32 -86 0 -112 22 -18 48 -19 462
-19 l439 0 0 -103 c0 -117 12 -140 71 -140 57 0 73 29 77 143 l4 100 159 0
159 0 0 -99 c0 -81 3 -103 18 -122 27 -33 78 -30 109 5 21 24 23 37 23 122 l0
94 79 0 c64 0 83 4 105 21 31 25 34 66 7 100 l-19 24 -541 3 c-298 1 -541 6
-541 10 0 18 59 99 95 131 72 63 98 69 654 153 321 48 535 85 548 94 33 21 40
60 16 92 -21 28 -129 54 -998 242 -217 48 -358 58 -490 36z"/>
<path d="M2969 3087 c-53 -15 -126 -56 -153 -86 -18 -20 -28 -21 -243 -21
-242 0 -274 -6 -287 -52 -10 -39 -7 -288 5 -309 25 -48 105 -44 128 7 6 14 11
65 11 114 l0 90 134 0 134 0 -6 -65 c-4 -59 -2 -68 18 -90 23 -25 53 -31 85
-19 22 9 45 57 45 94 0 40 42 122 77 150 99 77 246 65 323 -28 30 -37 44 -72
55 -145 11 -66 30 -77 144 -77 l99 0 4 -81 c3 -70 6 -83 27 -100 30 -25 76
-24 101 1 17 17 20 33 20 100 l0 80 50 0 50 0 0 -74 c0 -90 21 -126 75 -126
54 0 75 36 75 126 l0 74 50 0 50 0 0 -80 c0 -67 3 -83 20 -100 25 -25 71 -26
101 -1 21 17 24 30 27 100 l4 81 62 0 c76 0 103 17 111 68 15 92 64 142 140
142 45 0 96 -27 118 -62 9 -13 18 -42 22 -66 8 -52 38 -82 80 -82 131 0 245
-117 245 -252 l0 -58 -924 -2 -924 -3 -43 -30 c-49 -35 -80 -88 -86 -150 -8
-63 32 -145 88 -182 l43 -28 743 -3 c546 -2 743 -5 743 -14 0 -6 -18 -28 -39
-49 -54 -51 -101 -59 -336 -59 -182 0 -196 -1 -215 -20 -26 -26 -25 -60 1 -94
l21 -27 242 3 c236 3 242 4 296 29 110 52 180 153 188 269 3 57 1 68 -17 84
-17 15 -21 31 -21 78 l0 58 175 0 c221 0 215 -4 215 146 0 160 -47 274 -145
356 -37 31 -120 73 -160 82 -23 5 -34 16 -48 49 -25 62 -68 109 -128 142 -46
25 -65 29 -129 29 -120 1 -216 -58 -262 -161 l-19 -43 -399 0 c-313 0 -400 3
-400 13 0 30 -61 136 -101 176 -89 89 -243 131 -360 98z m561 -947 l0 -60
-173 0 c-193 0 -217 7 -217 60 0 53 24 60 217 60 l173 0 0 -60z m295 0 l0 -55
-75 0 -75 0 -3 44 c-5 70 -2 72 80 69 l73 -3 0 -55z m365 0 l0 -60 -110 0
-110 0 0 60 0 60 110 0 110 0 0 -60z m395 0 l0 -55 -122 -3 -123 -3 0 61 0 61
123 -3 122 -3 0 -55z"/>
<path d="M3035 2805 c-23 -22 -25 -32 -25 -119 0 -84 3 -98 23 -120 32 -36 74
-39 107 -6 17 17 20 33 20 123 0 95 -2 105 -23 125 -31 29 -72 28 -102 -3z"/>
<path d="M4456 2759 c-52 -41 -23 -129 43 -129 70 0 100 81 47 127 -33 28 -56
29 -90 2z"/>
<path d="M602 2184 c-23 -11 -43 -61 -33 -86 18 -46 36 -53 175 -58 120 -5
135 -8 178 -32 53 -32 92 -74 115 -127 20 -47 21 -155 1 -202 -24 -55 -78
-110 -133 -135 -49 -23 -55 -24 -397 -24 -388 0 -366 -5 -328 69 11 22 35 48
53 60 32 20 48 21 244 21 128 0 222 4 242 11 54 19 69 79 28 117 -22 21 -31
22 -248 22 -271 0 -302 -7 -382 -80 -64 -58 -92 -117 -102 -212 -8 -75 6 -132
35 -148 11 -6 168 -10 402 -10 417 0 456 4 548 57 67 38 134 114 166 188 l28
65 353 0 c340 0 354 1 373 20 27 27 26 81 -1 106 -20 18 -43 19 -369 22 l-348
3 -6 40 c-17 106 -109 220 -224 276 -75 38 -76 38 -216 40 -78 1 -147 0 -154
-3z"/>
<path d="M2327 2179 c-105 -25 -222 -120 -271 -221 -90 -184 -13 -426 170
-533 85 -50 131 -55 501 -55 411 0 383 -9 383 125 0 59 -6 100 -19 135 l-19
50 399 0 c386 0 400 1 419 20 29 29 30 72 3 103 -15 16 -60 17 -667 17 -731 0
-696 3 -696 -69 0 -67 19 -75 194 -81 136 -4 154 -7 182 -27 28 -20 64 -84 64
-113 0 -6 -112 -10 -302 -10 -272 0 -307 2 -343 19 -163 74 -208 279 -91 418
50 59 105 77 253 83 145 5 158 10 169 67 5 26 1 37 -19 57 -25 25 -30 26 -149
25 -68 -1 -140 -5 -161 -10z"/>
</g>
</svg>